# xmcd
#
# Track frame offsets:
#	150
#	18447
#	33723
#	43851
#	55554
#	67497
#	80865
#	93883
#
# Disc length: 1468 seconds
#
# Revision: 1
# Processed by: cddbd v1.5.2PL0 Copyright (c) Steve Scherf et al.
# Submitted via: audiograbber 1.83.01
#
DISCID=6d05ba08
DTITLE=Hillbilly Rawhide - Outlaw Sessions
DYEAR=2014
DGENRE=
TTITLE0=Black Long Veil
TTITLE1=Georgia on a Fast Train
TTITLE2=Only Daddy That'll Walk the Line
TTITLE3=Moanin' the Blues
TTITLE4=Truck Stop
TTITLE5=Drinkin' and Drivin'
TTITLE6=I got a Right to be Wrong
TTITLE7=Working man blues
EXTD=Band from Curitiba/Brazil
EXTT0=
EXTT1=
EXTT2=
EXTT3=
EXTT4=
EXTT5=
EXTT6=
EXTT7=
PLAYORDER=
